<?xml version="1.0"?>
<svg xmlns="http://www.w3.org/2000/svg" xmlns:xlink="http://www.w3.org/1999/xlink" xmlns:svgjs="http://svgjs.com/svgjs" version="1.1" width="512" height="512" x="0" y="0" viewBox="0 0 512 512" style="enable-background:new 0 0 512 512" xml:space="preserve" class=""><g><path xmlns="http://www.w3.org/2000/svg" d="M116,332.973a6,6,0,0,0-6,6v6.3a6,6,0,0,0,12,0v-6.3A6,6,0,0,0,116,332.973Z" fill="#fce373" data-original="#000000" style=""/><path xmlns="http://www.w3.org/2000/svg" d="M116,358.269a6,6,0,0,0-6,6v76a6,6,0,0,0,12,0v-76A6,6,0,0,0,116,358.269Z" fill="#fce373" data-original="#000000" style=""/><path xmlns="http://www.w3.org/2000/svg" d="M416.654,77.727a68.92,68.92,0,0,0-133.813,0,16.539,16.539,0,0,0,0,33.064,68.586,68.586,0,0,0,19.847,33.918L304.243,178H282.427c-3.314,0-6.427,2.656-6.427,5.969v79.02c0,3.314,3.113,6.011,6.427,6.011h27.118l.4,7H282.763c-15.765,0-26.575,6.543-33.047,20.492A42.975,42.975,0,0,1,211.324,321H208v-5.93a6.028,6.028,0,0,0-5.963-6.07H85.3a6.326,6.326,0,0,0-6.3,6.07v165.4c0,3.314,2.99,5.526,6.3,5.526H202.037c3.314,0,5.963-2.212,5.963-5.526V460h10.078a99.136,99.136,0,0,1,50.636,13.58c.564.335,1.126.833,1.684,1.18C288.387,485.918,308.567,487,329.39,487h55.368a25.092,25.092,0,0,0,19.556-40.6,25.042,25.042,0,0,0,5.15-41.733,25.555,25.555,0,0,0,.335-38.586A23.762,23.762,0,0,0,394.653,324h-8.144l3.251-55h27.31a5.95,5.95,0,0,0,5.93-6.011v-79.02A5.914,5.914,0,0,0,417.07,178H395.208l1.594-33.295a68.579,68.579,0,0,0,19.85-33.906,16.544,16.544,0,0,0,0-33.072ZM196,474H166V387a6,6,0,0,0-12,0v87H91V321h63v26a6,6,0,0,0,12,0V321h30ZM349.748,37.643A56.419,56.419,0,0,1,404.22,78H295.274A56.4,56.4,0,0,1,349.748,37.643ZM394.653,336a12,12,0,0,1,0,24H355.1a6,6,0,0,0,0,12h37.736a13.5,13.5,0,1,1,0,27H363.773a6,6,0,0,0-6,6,6.071,6.071,0,0,0,6.082,6h29.573a13,13,0,1,1,0,26H363.515a6,6,0,0,0,0,12h21.243a13,13,0,0,1,0,26H329.39c-19.021,0-37.362-.958-52.665-10.452-.627-.39-1.257-.829-1.889-1.2A111.212,111.212,0,0,0,218.078,448H208V333h3.324A55.886,55.886,0,0,0,260.6,301.657c3.162-6.814,8.267-13.657,22.162-13.657h27.879l1.324,22.934a6,6,0,0,0-6.517,6.631A20.646,20.646,0,0,0,326,336Zm-73.088-67h56.174l-3.251,55H326a8.631,8.631,0,0,1-1.263-.1ZM411,190v67H288V190Zm-95.865-36.068a69.383,69.383,0,0,0,69.211.008L383.194,178H316.256Zm34.613-2.575A56.439,56.439,0,0,1,295.279,111H404.217A56.447,56.447,0,0,1,349.748,151.357ZM416.139,99H283.357a4.5,4.5,0,1,1,0-9H416.139a4.5,4.5,0,1,1,0,9Z" fill="#fce373" data-original="#000000" style=""/><path xmlns="http://www.w3.org/2000/svg" d="M349.748,253.241a29.974,29.974,0,1,0-29.974-29.974A30.009,30.009,0,0,0,349.748,253.241Zm0-47.948a17.974,17.974,0,1,1-17.974,17.974A17.994,17.994,0,0,1,349.748,205.293Z" fill="#fce373" data-original="#000000" style=""/></g></svg>
